<?xml version="1.0" standalone="no"?>
<!DOCTYPE svg PUBLIC "-//W3C//DTD SVG 20010904//EN"
 "http://www.w3.org/TR/2001/REC-SVG-20010904/DTD/svg10.dtd">
<svg version="1.0" xmlns="http://www.w3.org/2000/svg"
 width="168.000000pt" height="168.000000pt" viewBox="0 0 168.000000 168.000000"
 preserveAspectRatio="xMidYMid meet">
<metadata>
Created by potrace 1.11, written by Peter Selinger 2001-2013
</metadata>
<g transform="translate(0.000000,168.000000) scale(0.100000,-0.100000)"
fill="#000000" stroke="none">
<path d="M405 1435 l-25 -24 0 -565 c0 -310 3 -572 6 -581 19 -50 158 -55 180
-7 12 27 13 1133 1 1157 -17 33 -40 44 -90 45 -38 0 -53 -5 -72 -25z"/>
<path d="M1139 1447 c-9 -7 -20 -21 -26 -32 -7 -13 -10 -218 -9 -582 1 -560 1
-563 22 -584 31 -30 115 -34 149 -7 l25 19 0 575 0 575 -25 24 c-19 20 -34 25
-72 25 -26 0 -55 -6 -64 -13z"/>
<path d="M40 1165 l-24 -26 -1 -286 c0 -357 2 -363 113 -359 88 3 88 4 87 368
l-1 277 -24 26 c-19 20 -33 25 -75 25 -42 0 -56 -5 -75 -25z"/>
<path d="M1498 1176 c-10 -7 -21 -24 -26 -37 -4 -13 -8 -153 -7 -312 1 -276 2
-288 21 -308 46 -45 158 -32 171 20 4 14 7 156 7 315 l0 288 -27 24 c-32 27
-109 33 -139 10z"/>
<path d="M803 1152 c-13 -2 -32 -15 -43 -30 -20 -25 -21 -36 -18 -318 l3 -292
24 -21 c36 -31 114 -29 146 4 l25 24 0 290 c0 287 0 290 -22 315 -23 25 -68
36 -115 28z"/>
</g>
</svg>
