<!-- Generated by IcoMoon.io -->
<svg version="1.1" xmlns="http://www.w3.org/2000/svg" width="24" height="24" viewBox="0 0 24 24">
<title>arrow-ios-back-outline</title>
<path d="M13.83 19c-0.001 0-0.002 0-0.003 0-0.313 0-0.592-0.143-0.775-0.368l-0.001-0.002-4.83-6c-0.142-0.171-0.227-0.393-0.227-0.635s0.086-0.464 0.229-0.637l-0.001 0.002 5-6c0.185-0.221 0.461-0.361 0.77-0.361 0.553 0 1.001 0.448 1.001 1.001 0 0.244-0.087 0.468-0.233 0.642l0.001-0.002-4.47 5.36 4.32 5.36c0.144 0.172 0.232 0.396 0.232 0.64 0 0.552-0.448 1-1 1-0.004 0-0.008-0-0.012-0h0.001z"></path>
</svg>
