<!-- Generated by IcoMoon.io -->
<svg version="1.1" xmlns="http://www.w3.org/2000/svg" width="24" height="24" viewBox="0 0 24 24">
<title>arrow-ios-downward-outline</title>
<path d="M12 16c-0.001 0-0.001 0-0.002 0-0.243 0-0.466-0.087-0.64-0.231l0.002 0.001-6-5c-0.221-0.185-0.361-0.461-0.361-0.77 0-0.553 0.448-1.001 1.001-1.001 0.244 0 0.468 0.087 0.642 0.233l-0.002-0.001 5.36 4.48 5.36-4.32c0.17-0.139 0.391-0.224 0.63-0.224 0.314 0 0.595 0.145 0.778 0.372l0.001 0.002c0.157 0.176 0.253 0.409 0.253 0.665 0 0.323-0.153 0.61-0.391 0.793l-0.002 0.002-6 4.83c-0.157 0.108-0.352 0.172-0.561 0.172-0.024 0-0.048-0.001-0.072-0.003l0.003 0z"></path>
</svg>
