<!-- Generated by IcoMoon.io -->
<svg version="1.1" xmlns="http://www.w3.org/2000/svg" width="24" height="24" viewBox="0 0 24 24">
<title>arrow-ios-upward-outline</title>
<path d="M18 15c-0.001 0-0.001 0-0.002 0-0.243 0-0.466-0.087-0.64-0.231l0.002 0.001-5.36-4.48-5.37 4.32c-0.17 0.139-0.391 0.224-0.63 0.224-0.314 0-0.595-0.145-0.778-0.372l-0.001-0.002c-0.139-0.17-0.224-0.391-0.224-0.63 0-0.314 0.145-0.595 0.372-0.778l0.002-0.001 6-4.83c0.171-0.142 0.393-0.227 0.635-0.227s0.464 0.086 0.637 0.229l-0.002-0.001 6 5c0.222 0.185 0.362 0.461 0.362 0.77 0 0.244-0.088 0.468-0.233 0.642l0.001-0.002c-0.183 0.225-0.46 0.368-0.77 0.37h-0z"></path>
</svg>
