<!-- Generated by IcoMoon.io -->
<svg version="1.1" xmlns="http://www.w3.org/2000/svg" width="24" height="24" viewBox="0 0 24 24">
<title>arrowhead-down-outline</title>
<path d="M17.37 12.39l-5.37 4.32-5.36-4.48c-0.172-0.144-0.396-0.231-0.64-0.231-0.553 0-1.001 0.448-1.001 1.001 0 0.309 0.14 0.585 0.36 0.769l0.002 0.001 6 5c0.171 0.142 0.393 0.227 0.635 0.227s0.464-0.086 0.637-0.229l5.998-4.829c0.229-0.185 0.374-0.465 0.374-0.78 0-0.24-0.084-0.46-0.225-0.632l0.001 0.002c-0.185-0.225-0.463-0.368-0.775-0.368-0.242 0-0.464 0.086-0.637 0.229l0.002-0.001z"></path>
<path d="M11.36 11.77c0.171 0.142 0.393 0.227 0.635 0.227s0.464-0.086 0.637-0.229l5.998-4.829c0.229-0.185 0.374-0.465 0.374-0.78 0-0.24-0.084-0.46-0.225-0.632l0.001 0.002c-0.185-0.229-0.465-0.374-0.78-0.374-0.24 0-0.46 0.084-0.632 0.225l0.002-0.001-5.37 4.33-5.36-4.48c-0.172-0.144-0.396-0.231-0.64-0.231-0.553 0-1.001 0.448-1.001 1.001 0 0.309 0.14 0.585 0.36 0.769l0.002 0.001z"></path>
</svg>
