<!-- Generated by IcoMoon.io -->
<svg version="1.1" xmlns="http://www.w3.org/2000/svg" width="24" height="24" viewBox="0 0 24 24">
<title>close-outline</title>
<path d="M13.41 12l4.3-4.29c0.182-0.182 0.294-0.433 0.294-0.71 0-0.555-0.45-1.004-1.004-1.004-0.277 0-0.528 0.112-0.71 0.294v0l-4.29 4.3-4.29-4.3c-0.182-0.182-0.433-0.294-0.71-0.294-0.555 0-1.004 0.45-1.004 1.004 0 0.277 0.112 0.528 0.294 0.71v0l4.3 4.29-4.3 4.29c-0.183 0.181-0.296 0.432-0.296 0.71s0.113 0.529 0.296 0.71l0 0c0.181 0.183 0.432 0.296 0.71 0.296s0.529-0.113 0.71-0.296l0-0 4.29-4.3 4.29 4.3c0.181 0.183 0.432 0.296 0.71 0.296s0.529-0.113 0.71-0.296l0-0c0.183-0.181 0.296-0.432 0.296-0.71s-0.113-0.529-0.296-0.71l-0-0z"></path>
</svg>
