<!-- Generated by IcoMoon.io -->
<svg version="1.1" xmlns="http://www.w3.org/2000/svg" width="24" height="24" viewBox="0 0 24 24">
<title>facebook-outline</title>
<path d="M13 22h-4c-0.552 0-1-0.448-1-1v0-6.2h-2c-0.552 0-1-0.448-1-1v0-3.6c0-0.552 0.448-1 1-1v0h2v-1.7c0.146-3.071 2.67-5.505 5.764-5.505 0.083 0 0.166 0.002 0.248 0.005l-0.012-0h3c0.552 0 1 0.448 1 1v0 3.6c0 0.552-0.448 1-1 1v0h-3v1.6h3c0.002-0 0.005-0 0.008-0 0.322 0 0.608 0.152 0.791 0.388l0.002 0.002c0.125 0.165 0.2 0.374 0.2 0.6 0 0.1-0.015 0.196-0.042 0.287l0.002-0.007-1 3.6c-0.122 0.425-0.507 0.731-0.963 0.731-0.013 0-0.026-0-0.039-0.001l0.002 0h-1.96v6.2c0 0.552-0.448 1-1 1v0zM10 20h2v-6.2c0-0.552 0.448-1 1-1v0h2.24l0.44-1.6h-2.68c-0.552 0-1-0.448-1-1v0-2.7c0.055-1.061 0.928-1.9 1.998-1.9 0.001 0 0.002 0 0.003 0h2v-1.6h-2c-0.069-0.004-0.149-0.007-0.23-0.007-1.992 0-3.623 1.54-3.769 3.494l-0.001 0.013v2.7c0 0.552-0.448 1-1 1v0h-2v1.6h2c0.552 0 1 0.448 1 1v0z"></path>
</svg>
