<!-- Generated by IcoMoon.io -->
<svg version="1.1" xmlns="http://www.w3.org/2000/svg" width="24" height="24" viewBox="0 0 24 24">
<title>google-outline</title>
<path d="M12 22h-0.43c-5.205-0.307-9.34-4.491-9.569-9.689l-0.001-0.021c-0.003-0.089-0.004-0.195-0.004-0.3 0-5.523 4.477-10 10-10 1.495 0 2.913 0.328 4.187 0.916l-0.062-0.026c0.361 0.173 0.636 0.477 0.767 0.85l0.003 0.010c0.048 0.138 0.075 0.298 0.075 0.464 0 0.255-0.065 0.495-0.179 0.704l0.004-0.008-1.29 2.38c-0.249 0.453-0.722 0.755-1.267 0.755-0.204 0-0.397-0.042-0.573-0.118l0.009 0.004c-0.488-0.197-1.053-0.312-1.646-0.312-1.279 0-2.433 0.534-3.252 1.39l-0.002 0.002c-0.727 0.784-1.173 1.838-1.173 2.995 0 0.121 0.005 0.241 0.014 0.36l-0.001-0.016c0.128 1.224 0.745 2.284 1.65 2.993l0.010 0.007c0.776 0.645 1.782 1.036 2.88 1.036 0.201 0 0.399-0.013 0.593-0.039l-0.023 0.002c1.087-0.15 2.015-0.73 2.622-1.559l0.008-0.011h-2.9c0 0-0 0-0 0-0.797 0-1.444-0.644-1.45-1.439v-2.681c0-0.801 0.649-1.45 1.45-1.45v0h8.1c0.795 0.006 1.439 0.646 1.45 1.439l0 0.001c0 0.63 0 1.7 0 1.88-0.284 5.295-4.647 9.48-9.986 9.48-0.005 0-0.010 0-0.014 0h0.001zM12 4c-0.001 0-0.002 0-0.004 0-4.418 0-8 3.582-8 8 0 0.084 0.001 0.168 0.004 0.252l-0-0.012c0.184 4.172 3.489 7.515 7.628 7.759l0.022 0.001c0.108 0.005 0.234 0.008 0.361 0.008 4.273 0 7.764-3.351 7.989-7.568l0.001-0.020v-1.22h-7v1.58h5.31l-0.41 1.3c-0.671 2.237-2.554 3.902-4.867 4.246l-0.033 0.004c-0.284 0.043-0.611 0.068-0.945 0.068-1.536 0-2.95-0.526-4.069-1.409l0.014 0.011c-1.481-1.169-2.423-2.965-2.423-4.98 0-1.672 0.648-3.192 1.706-4.323l-0.003 0.004c1.194-1.284 2.893-2.085 4.78-2.085 0.693 0 1.36 0.108 1.987 0.308l-0.046-0.013 0.77-1.43c-0.807-0.304-1.739-0.48-2.712-0.48-0.020 0-0.041 0-0.061 0l0.003-0z"></path>
</svg>
