<!-- Generated by IcoMoon.io -->
<svg version="1.1" xmlns="http://www.w3.org/2000/svg" width="24" height="24" viewBox="0 0 24 24">
<title>menu-outline</title>
<path d="M3.95 11h16.1c0.525 0 0.95 0.425 0.95 0.95v0.1c0 0.525-0.425 0.95-0.95 0.95h-16.1c-0.525 0-0.95-0.425-0.95-0.95v-0.1c0-0.525 0.425-0.95 0.95-0.95z"></path>
<path d="M3.95 16h16.1c0.525 0 0.95 0.425 0.95 0.95v0.1c0 0.525-0.425 0.95-0.95 0.95h-16.1c-0.525 0-0.95-0.425-0.95-0.95v-0.1c0-0.525 0.425-0.95 0.95-0.95z"></path>
<path d="M3.95 6h16.1c0.525 0 0.95 0.425 0.95 0.95v0.1c0 0.525-0.425 0.95-0.95 0.95h-16.1c-0.525 0-0.95-0.425-0.95-0.95v-0.1c0-0.525 0.425-0.95 0.95-0.95z"></path>
</svg>
