<!-- Generated by IcoMoon.io -->
<svg version="1.1" xmlns="http://www.w3.org/2000/svg" width="24" height="24" viewBox="0 0 24 24">
<title>search-outline</title>
<path d="M20.71 19.29l-3.4-3.39c1.054-1.333 1.69-3.037 1.69-4.89 0-0.003 0-0.007 0-0.010v0.001c0-4.418-3.582-8-8-8s-8 3.582-8 8c0 4.418 3.582 8 8 8v0c0.003 0 0.006 0 0.010 0 1.853 0 3.558-0.636 4.907-1.703l-0.017 0.013 3.39 3.4c0.181 0.183 0.432 0.296 0.71 0.296s0.529-0.113 0.71-0.296l0-0c0.183-0.181 0.296-0.432 0.296-0.71s-0.113-0.529-0.296-0.71l-0-0zM5 11c0-3.314 2.686-6 6-6s6 2.686 6 6c0 3.314-2.686 6-6 6v0c-3.314 0-6-2.686-6-6v0z"></path>
</svg>
