<!-- Generated by IcoMoon.io -->
<svg version="1.1" xmlns="http://www.w3.org/2000/svg" width="24" height="24" viewBox="0 0 24 24">
<title>twitter-outline</title>
<path d="M8.51 20h-0.080c-1.695-0.015-3.292-0.416-4.714-1.118l0.064 0.028c-0.473-0.226-0.793-0.7-0.793-1.249 0-0.067 0.005-0.134 0.014-0.198l-0.001 0.007c0.094-0.604 0.559-1.076 1.152-1.179l0.008-0.001c0.953-0.13 1.811-0.444 2.569-0.907l-0.029 0.017c-2.228-1.753-3.645-4.449-3.645-7.476 0-0.563 0.049-1.115 0.143-1.651l-0.008 0.057c0.083-0.551 0.474-0.993 0.99-1.147l0.010-0.003c0.121-0.039 0.26-0.062 0.405-0.062 0.41 0 0.776 0.182 1.024 0.47l0.002 0.002c1.158 1.507 2.882 2.529 4.848 2.747l0.032 0.003c0.049-1.225 0.58-2.317 1.408-3.098l0.002-0.002c0.801-0.768 1.891-1.241 3.092-1.241 1.294 0 2.46 0.55 3.276 1.429l0.003 0.003c0.123 0.109 0.285 0.176 0.464 0.176 0.115 0 0.224-0.028 0.32-0.077l-0.004 0.002c0.174-0.084 0.378-0.133 0.593-0.133 0.768 0 1.39 0.622 1.39 1.39 0 0.122-0.016 0.24-0.045 0.352l0.002-0.010c-0.247 0.999-0.691 1.872-1.29 2.613l0.010-0.013c-0.28 5.735-4.999 10.279-10.778 10.279-0.152 0-0.303-0.003-0.454-0.009l0.022 0.001zM8.51 18h0.080c0.090 0.003 0.196 0.005 0.302 0.005 4.786 0 8.679-3.825 8.788-8.585l0-0.010c0.018-0.332 0.156-0.629 0.37-0.85l-0 0c0.231-0.29 0.438-0.619 0.607-0.969l0.014-0.031c-0.001 0-0.003 0-0.005 0-0.755 0-1.434-0.327-1.903-0.848l-0.002-0.002c-0.443-0.439-1.052-0.71-1.725-0.71-0.012 0-0.025 0-0.037 0l0.002-0c-0.019-0.001-0.042-0.001-0.065-0.001-0.67 0-1.278 0.263-1.726 0.692l0.001-0.001c-0.486 0.462-0.789 1.113-0.789 1.835 0 0.207 0.025 0.409 0.072 0.602l-0.004-0.017 0.26 1.14-1.17 0.080c-0.202 0.017-0.437 0.027-0.675 0.027-2.29 0-4.364-0.928-5.866-2.428l0 0c-0.002 0.059-0.003 0.128-0.003 0.197 0 2.691 1.493 5.033 3.696 6.244l0.037 0.019 0.95 0.54-0.63 0.9c-0.675 0.879-1.587 1.546-2.64 1.908l-0.040 0.012c0.609 0.159 1.308 0.25 2.028 0.25 0.022 0 0.044-0 0.066-0l-0.003 0zM19 6.65v0z"></path>
</svg>
