<?xml version="1.0" encoding="UTF-8"?>
<svg width="235px" height="62px" viewBox="0 0 235 62" version="1.1" xmlns="http://www.w3.org/2000/svg" xmlns:xlink="http://www.w3.org/1999/xlink">
    <!-- Generator: Sketch 49 (51002) - http://www.bohemiancoding.com/sketch -->
    <title>On White Background</title>
    <desc>Created with Sketch.</desc>
    <defs></defs>
    <g id="Page-1" stroke="none" stroke-width="1" fill="none" fill-rule="evenodd">
        <g id="Acme-Logo-#8" transform="translate(-138.000000, -87.000000)">
            <g id="On-White-Background" transform="translate(138.000000, 87.000000)">
                <g id="Symbol" fill="#231F20">
                    <path d="M7.2655,48.3625 L4.6865,48.3625 C2.5495,48.3625 0.8165,46.6295 0.8165,44.4925 L0.8165,17.3265 C0.8165,15.1895 2.5495,13.4565 4.6865,13.4565 L6.8415,13.4565 C8.9785,13.4565 10.7115,15.1895 10.7115,17.3265 L10.7115,44.9165 C10.7115,46.8195 9.1685,48.3625 7.2655,48.3625" id="Fill-2"></path>
                    <path d="M61.6205,61.8185 L59.0415,61.8185 C56.9045,61.8185 55.1715,60.0855 55.1715,57.9485 L55.1715,3.8705 C55.1715,1.7335 56.9045,0.0005 59.0415,0.0005 L61.1965,0.0005 C63.3335,0.0005 65.0665,1.7335 65.0665,3.8705 L65.0665,58.3725 C65.0665,60.2755 63.5235,61.8185 61.6205,61.8185" id="Fill-4"></path>
                    <path d="M25.3838,61.8185 L22.8048,61.8185 C20.6678,61.8185 18.9348,60.0855 18.9348,57.9485 L18.9348,3.8705 C18.9348,1.7335 20.6678,0.0005 22.8048,0.0005 L24.9598,0.0005 C27.0968,0.0005 28.8298,1.7335 28.8298,3.8705 L28.8298,58.3725 C28.8298,60.2755 27.2868,61.8185 25.3838,61.8185" id="Fill-6"></path>
                    <path d="M79.7388,48.3625 L77.1598,48.3625 C75.0228,48.3625 73.2898,46.6295 73.2898,44.4925 L73.2898,17.3265 C73.2898,15.1895 75.0228,13.4565 77.1598,13.4565 L79.3148,13.4565 C81.4518,13.4565 83.1848,15.1895 83.1848,17.3265 L83.1848,44.9165 C83.1848,46.8195 81.6418,48.3625 79.7388,48.3625" id="Fill-8"></path>
                    <path d="M43.5021,49.4572 L40.9231,49.4572 C38.7861,49.4572 37.0531,47.7242 37.0531,45.5872 L37.0531,19.1922 C37.0531,17.0542 38.7861,15.3222 40.9231,15.3222 L43.0781,15.3222 C45.2151,15.3222 46.9481,17.0542 46.9481,19.1922 L46.9481,46.0112 C46.9481,47.9142 45.4051,49.4572 43.5021,49.4572" id="Fill-10"></path>
                </g>
                <path d="M101.46,40 L101.46,25.54 L106.45,25.54 C107.396671,25.54 108.204997,25.6299991 108.875,25.81 C109.545003,25.9900009 110.094998,26.246665 110.525,26.58 C110.955002,26.913335 111.269999,27.3166643 111.47,27.79 C111.670001,28.2633357 111.77,28.7966637 111.77,29.39 C111.77,29.7300017 111.72,30.0549984 111.62,30.365 C111.519999,30.6750016 111.365001,30.9649987 111.155,31.235 C110.944999,31.5050014 110.678335,31.7499989 110.355,31.97 C110.031665,32.1900011 109.646669,32.3766659 109.2,32.53 C111.186677,32.9766689 112.18,34.0499915 112.18,35.75 C112.18,36.3633364 112.063334,36.9299974 111.83,37.45 C111.596666,37.9700026 111.256669,38.4183314 110.81,38.795 C110.363331,39.1716685 109.813337,39.4666656 109.16,39.68 C108.506663,39.8933344 107.760004,40 106.92,40 L101.46,40 Z M104.15,33.66 L104.15,37.9 L106.88,37.9 C107.380003,37.9 107.798332,37.8400006 108.135,37.72 C108.471668,37.5999994 108.741666,37.440001 108.945,37.24 C109.148334,37.039999 109.295,36.806668 109.385,36.54 C109.475,36.273332 109.52,35.9900015 109.52,35.69 C109.52,35.3766651 109.47,35.0950012 109.37,34.845 C109.269999,34.5949988 109.113334,34.3816676 108.9,34.205 C108.686666,34.0283325 108.413335,33.8933338 108.08,33.8 C107.746665,33.7066662 107.343336,33.66 106.87,33.66 L104.15,33.66 Z M104.15,31.8 L106.3,31.8 C107.213338,31.8 107.906664,31.633335 108.38,31.3 C108.853336,30.966665 109.09,30.4366703 109.09,29.71 C109.09,28.9566629 108.876669,28.4200016 108.45,28.1 C108.023331,27.7799984 107.356671,27.62 106.45,27.62 L104.15,27.62 L104.15,31.8 Z M127.61,25.54 L127.61,27.68 L121.2,27.68 L121.2,31.69 L126.25,31.69 L126.25,33.76 L121.2,33.76 L121.2,37.85 L127.61,37.85 L127.61,40 L118.49,40 L118.49,25.54 L127.61,25.54 Z M135.35,25.54 C135.470001,25.54 135.57,25.5449999 135.65,25.555 C135.73,25.5650001 135.801666,25.5849999 135.865,25.615 C135.928334,25.6450002 135.99,25.6883331 136.05,25.745 C136.11,25.8016669 136.176666,25.8766662 136.25,25.97 L143.84,35.64 C143.813333,35.4066655 143.795,35.1783345 143.785,34.955 C143.775,34.7316656 143.77,34.5233343 143.77,34.33 L143.77,25.54 L146.14,25.54 L146.14,40 L144.75,40 C144.536666,40 144.360001,39.966667 144.22,39.9 C144.079999,39.833333 143.943334,39.7133342 143.81,39.54 L136.25,29.91 C136.27,30.1233344 136.285,30.3349989 136.295,30.545 C136.305,30.7550011 136.31,30.9466658 136.31,31.12 L136.31,40 L133.94,40 L133.94,25.54 L135.35,25.54 Z M162.18,25.54 L162.18,27.68 L155.77,27.68 L155.77,31.69 L160.82,31.69 L160.82,33.76 L155.77,33.76 L155.77,37.85 L162.18,37.85 L162.18,40 L153.06,40 L153.06,25.54 L162.18,25.54 Z M169.92,25.54 C170.040001,25.54 170.14,25.5449999 170.22,25.555 C170.3,25.5650001 170.371666,25.5849999 170.435,25.615 C170.498334,25.6450002 170.56,25.6883331 170.62,25.745 C170.68,25.8016669 170.746666,25.8766662 170.82,25.97 L178.41,35.64 C178.383333,35.4066655 178.365,35.1783345 178.355,34.955 C178.345,34.7316656 178.34,34.5233343 178.34,34.33 L178.34,25.54 L180.71,25.54 L180.71,40 L179.32,40 C179.106666,40 178.930001,39.966667 178.79,39.9 C178.649999,39.833333 178.513334,39.7133342 178.38,39.54 L170.82,29.91 C170.84,30.1233344 170.855,30.3349989 170.865,30.545 C170.875,30.7550011 170.88,30.9466658 170.88,31.12 L170.88,40 L168.51,40 L168.51,25.54 L169.92,25.54 Z M195.38,28.17 C195.306666,28.3166674 195.221667,28.4199997 195.125,28.48 C195.028333,28.5400003 194.913334,28.57 194.78,28.57 C194.646666,28.57 194.496668,28.5183338 194.33,28.415 C194.163333,28.3116662 193.966668,28.1966673 193.74,28.07 C193.513332,27.9433327 193.248335,27.8283338 192.945,27.725 C192.641665,27.6216661 192.283335,27.57 191.87,27.57 C191.496665,27.57 191.171668,27.6149996 190.895,27.705 C190.618332,27.7950004 190.385001,27.9199992 190.195,28.08 C190.004999,28.2400008 189.863334,28.4316656 189.77,28.655 C189.676666,28.8783345 189.63,29.123332 189.63,29.39 C189.63,29.7300017 189.724999,30.0133322 189.915,30.24 C190.105001,30.4666678 190.356665,30.6599992 190.67,30.82 C190.983335,30.9800008 191.339998,31.1233327 191.74,31.25 C192.140002,31.3766673 192.548331,31.511666 192.965,31.655 C193.381669,31.7983341 193.789998,31.964999 194.19,32.155 C194.590002,32.3450009 194.946665,32.5849986 195.26,32.875 C195.573335,33.1650014 195.824999,33.5199979 196.015,33.94 C196.205001,34.3600021 196.3,34.869997 196.3,35.47 C196.3,36.1233366 196.188334,36.7349971 195.965,37.305 C195.741666,37.8750029 195.415002,38.3716645 194.985,38.795 C194.554998,39.2183354 194.030003,39.5516655 193.41,39.795 C192.789997,40.0383346 192.080004,40.16 191.28,40.16 C190.819998,40.16 190.366669,40.1150004 189.92,40.025 C189.473331,39.9349996 189.045002,39.8066675 188.635,39.64 C188.224998,39.4733325 187.841668,39.2733345 187.485,39.04 C187.128332,38.8066655 186.810001,38.5466681 186.53,38.26 L187.31,36.97 C187.383334,36.8766662 187.471666,36.7983337 187.575,36.735 C187.678334,36.6716664 187.793333,36.64 187.92,36.64 C188.086668,36.64 188.266666,36.7083327 188.46,36.845 C188.653334,36.9816674 188.881665,37.1333325 189.145,37.3 C189.408335,37.4666675 189.718332,37.6183326 190.075,37.755 C190.431668,37.8916673 190.859998,37.96 191.36,37.96 C192.126671,37.96 192.719998,37.7783352 193.14,37.415 C193.560002,37.0516649 193.77,36.5300034 193.77,35.85 C193.77,35.4699981 193.675001,35.1600012 193.485,34.92 C193.294999,34.6799988 193.043335,34.4783341 192.73,34.315 C192.416665,34.1516659 192.060002,34.0133339 191.66,33.9 C191.259998,33.7866661 190.853335,33.663334 190.44,33.53 C190.026665,33.396666 189.620002,33.2366676 189.22,33.05 C188.819998,32.8633324 188.463335,32.6200015 188.15,32.32 C187.836665,32.0199985 187.585001,31.6450023 187.395,31.195 C187.204999,30.7449977 187.11,30.1900033 187.11,29.53 C187.11,29.0033307 187.214999,28.4900025 187.425,27.99 C187.635001,27.4899975 187.941665,27.0466686 188.345,26.66 C188.748335,26.2733314 189.24333,25.9633345 189.83,25.73 C190.41667,25.4966655 191.086663,25.38 191.84,25.38 C192.693338,25.38 193.479996,25.513332 194.2,25.78 C194.920004,26.046668 195.533331,26.4199976 196.04,26.9 L195.38,28.17 Z M216.23,32.77 C216.23,33.8300053 216.053335,34.8116622 215.7,35.715 C215.346665,36.6183379 214.850003,37.3999967 214.21,38.06 C213.569997,38.7200033 212.800005,39.2349981 211.9,39.605 C210.999996,39.9750018 210.003339,40.16 208.91,40.16 C207.816661,40.16 206.818338,39.9750018 205.915,39.605 C205.011662,39.2349981 204.238337,38.7200033 203.595,38.06 C202.951663,37.3999967 202.453335,36.6183379 202.1,35.715 C201.746665,34.8116622 201.57,33.8300053 201.57,32.77 C201.57,31.7099947 201.746665,30.7283378 202.1,29.825 C202.453335,28.9216621 202.951663,28.1400033 203.595,27.48 C204.238337,26.8199967 205.011662,26.3050019 205.915,25.935 C206.818338,25.5649982 207.816661,25.38 208.91,25.38 C210.003339,25.38 210.999996,25.5666648 211.9,25.94 C212.800005,26.3133352 213.569997,26.82833 214.21,27.485 C214.850003,28.14167 215.346665,28.9216621 215.7,29.825 C216.053335,30.7283378 216.23,31.7099947 216.23,32.77 Z M213.47,32.77 C213.47,31.9766627 213.365001,31.2650031 213.155,30.635 C212.944999,30.0049968 212.643335,29.4700022 212.25,29.03 C211.856665,28.5899978 211.378336,28.2533345 210.815,28.02 C210.251664,27.7866655 209.61667,27.67 208.91,27.67 C208.20333,27.67 207.56667,27.7866655 207,28.02 C206.433331,28.2533345 205.951669,28.5899978 205.555,29.03 C205.158331,29.4700022 204.853334,30.0049968 204.64,30.635 C204.426666,31.2650031 204.32,31.9766627 204.32,32.77 C204.32,33.5633373 204.426666,34.2749969 204.64,34.905 C204.853334,35.5350032 205.158331,36.0683311 205.555,36.505 C205.951669,36.9416688 206.433331,37.2766655 207,37.51 C207.56667,37.7433345 208.20333,37.86 208.91,37.86 C209.61667,37.86 210.251664,37.7433345 210.815,37.51 C211.378336,37.2766655 211.856665,36.9416688 212.25,36.505 C212.643335,36.0683311 212.944999,35.5350032 213.155,34.905 C213.365001,34.2749969 213.47,33.5633373 213.47,32.77 Z M223.76,25.54 C223.880001,25.54 223.98,25.5449999 224.06,25.555 C224.14,25.5650001 224.211666,25.5849999 224.275,25.615 C224.338334,25.6450002 224.4,25.6883331 224.46,25.745 C224.52,25.8016669 224.586666,25.8766662 224.66,25.97 L232.25,35.64 C232.223333,35.4066655 232.205,35.1783345 232.195,34.955 C232.185,34.7316656 232.18,34.5233343 232.18,34.33 L232.18,25.54 L234.55,25.54 L234.55,40 L233.16,40 C232.946666,40 232.770001,39.966667 232.63,39.9 C232.489999,39.833333 232.353334,39.7133342 232.22,39.54 L224.66,29.91 C224.68,30.1233344 224.695,30.3349989 224.705,30.545 C224.715,30.7550011 224.72,30.9466658 224.72,31.12 L224.72,40 L222.35,40 L222.35,25.54 L223.76,25.54 Z" id="BENENSON" fill="#000000"></path>
            </g>
        </g>
    </g>
</svg>