<svg aria-hidden="true" style="position: absolute; width: 0; height: 0; overflow: hidden;" version="1.1" xmlns="http://www.w3.org/2000/svg" xmlns:xlink="http://www.w3.org/1999/xlink">
<defs>
<symbol id="icon-arrow-ios-back-outline" viewBox="0 0 24 24">
<title>arrow-ios-back-outline</title>
<path d="M13.83 19c-0.001 0-0.002 0-0.003 0-0.313 0-0.592-0.143-0.775-0.368l-0.001-0.002-4.83-6c-0.142-0.171-0.227-0.393-0.227-0.635s0.086-0.464 0.229-0.637l-0.001 0.002 5-6c0.185-0.221 0.461-0.361 0.77-0.361 0.553 0 1.001 0.448 1.001 1.001 0 0.244-0.087 0.468-0.233 0.642l0.001-0.002-4.47 5.36 4.32 5.36c0.144 0.172 0.232 0.396 0.232 0.64 0 0.552-0.448 1-1 1-0.004 0-0.008-0-0.012-0h0.001z"></path>
</symbol>
<symbol id="icon-arrow-ios-downward-outline" viewBox="0 0 24 24">
<title>arrow-ios-downward-outline</title>
<path d="M12 16c-0.001 0-0.001 0-0.002 0-0.243 0-0.466-0.087-0.64-0.231l0.002 0.001-6-5c-0.221-0.185-0.361-0.461-0.361-0.77 0-0.553 0.448-1.001 1.001-1.001 0.244 0 0.468 0.087 0.642 0.233l-0.002-0.001 5.36 4.48 5.36-4.32c0.17-0.139 0.391-0.224 0.63-0.224 0.314 0 0.595 0.145 0.778 0.372l0.001 0.002c0.157 0.176 0.253 0.409 0.253 0.665 0 0.323-0.153 0.61-0.391 0.793l-0.002 0.002-6 4.83c-0.157 0.108-0.352 0.172-0.561 0.172-0.024 0-0.048-0.001-0.072-0.003l0.003 0z"></path>
</symbol>
<symbol id="icon-arrow-ios-forward-outline" viewBox="0 0 24 24">
<title>arrow-ios-forward-outline</title>
<path d="M10 19c-0.001 0-0.001 0-0.002 0-0.243 0-0.466-0.087-0.64-0.231l0.002 0.001c-0.222-0.185-0.362-0.461-0.362-0.77 0-0.244 0.088-0.468 0.233-0.642l-0.001 0.002 4.48-5.36-4.32-5.37c-0.139-0.17-0.224-0.391-0.224-0.63 0-0.314 0.145-0.595 0.372-0.778l0.002-0.001c0.175-0.155 0.407-0.249 0.661-0.249 0.326 0 0.615 0.156 0.798 0.397l0.002 0.003 4.83 6c0.142 0.171 0.227 0.393 0.227 0.635s-0.086 0.464-0.229 0.637l0.001-0.002-5 6c-0.185 0.222-0.461 0.362-0.77 0.362-0.021 0-0.042-0.001-0.063-0.002l0.003 0z"></path>
</symbol>
<symbol id="icon-arrow-ios-upward-outline" viewBox="0 0 24 24">
<title>arrow-ios-upward-outline</title>
<path d="M18 15c-0.001 0-0.001 0-0.002 0-0.243 0-0.466-0.087-0.64-0.231l0.002 0.001-5.36-4.48-5.37 4.32c-0.17 0.139-0.391 0.224-0.63 0.224-0.314 0-0.595-0.145-0.778-0.372l-0.001-0.002c-0.139-0.17-0.224-0.391-0.224-0.63 0-0.314 0.145-0.595 0.372-0.778l0.002-0.001 6-4.83c0.171-0.142 0.393-0.227 0.635-0.227s0.464 0.086 0.637 0.229l-0.002-0.001 6 5c0.222 0.185 0.362 0.461 0.362 0.77 0 0.244-0.088 0.468-0.233 0.642l0.001-0.002c-0.183 0.225-0.46 0.368-0.77 0.37h-0z"></path>
</symbol>
<symbol id="icon-close-outline" viewBox="0 0 24 24">
<title>close-outline</title>
<path d="M13.41 12l4.3-4.29c0.182-0.182 0.294-0.433 0.294-0.71 0-0.555-0.45-1.004-1.004-1.004-0.277 0-0.528 0.112-0.71 0.294v0l-4.29 4.3-4.29-4.3c-0.182-0.182-0.433-0.294-0.71-0.294-0.555 0-1.004 0.45-1.004 1.004 0 0.277 0.112 0.528 0.294 0.71v0l4.3 4.29-4.3 4.29c-0.183 0.181-0.296 0.432-0.296 0.71s0.113 0.529 0.296 0.71l0 0c0.181 0.183 0.432 0.296 0.71 0.296s0.529-0.113 0.71-0.296l0-0 4.29-4.3 4.29 4.3c0.181 0.183 0.432 0.296 0.71 0.296s0.529-0.113 0.71-0.296l0-0c0.183-0.181 0.296-0.432 0.296-0.71s-0.113-0.529-0.296-0.71l-0-0z"></path>
</symbol>
<symbol id="icon-menu-outline" viewBox="0 0 24 24">
<title>menu-outline</title>
<path d="M3.95 11h16.1c0.525 0 0.95 0.425 0.95 0.95v0.1c0 0.525-0.425 0.95-0.95 0.95h-16.1c-0.525 0-0.95-0.425-0.95-0.95v-0.1c0-0.525 0.425-0.95 0.95-0.95z"></path>
<path d="M3.95 16h16.1c0.525 0 0.95 0.425 0.95 0.95v0.1c0 0.525-0.425 0.95-0.95 0.95h-16.1c-0.525 0-0.95-0.425-0.95-0.95v-0.1c0-0.525 0.425-0.95 0.95-0.95z"></path>
<path d="M3.95 6h16.1c0.525 0 0.95 0.425 0.95 0.95v0.1c0 0.525-0.425 0.95-0.95 0.95h-16.1c-0.525 0-0.95-0.425-0.95-0.95v-0.1c0-0.525 0.425-0.95 0.95-0.95z"></path>
</symbol>
<symbol id="icon-minus-outline" viewBox="0 0 24 24">
<title>minus-outline</title>
<path d="M19 13h-14c-0.552 0-1-0.448-1-1s0.448-1 1-1v0h14c0.552 0 1 0.448 1 1s-0.448 1-1 1v0z"></path>
</symbol>
<symbol id="icon-plus-outline" viewBox="0 0 24 24">
<title>plus-outline</title>
<path d="M19 11h-6v-6c0-0.552-0.448-1-1-1s-1 0.448-1 1v0 6h-6c-0.552 0-1 0.448-1 1s0.448 1 1 1v0h6v6c0 0.552 0.448 1 1 1s1-0.448 1-1v0-6h6c0.552 0 1-0.448 1-1s-0.448-1-1-1v0z"></path>
</symbol>
<symbol id="icon-search-outline" viewBox="0 0 24 24">
<title>search-outline</title>
<path d="M20.71 19.29l-3.4-3.39c1.054-1.333 1.69-3.037 1.69-4.89 0-0.003 0-0.007 0-0.010v0.001c0-4.418-3.582-8-8-8s-8 3.582-8 8c0 4.418 3.582 8 8 8v0c0.003 0 0.006 0 0.010 0 1.853 0 3.558-0.636 4.907-1.703l-0.017 0.013 3.39 3.4c0.181 0.183 0.432 0.296 0.71 0.296s0.529-0.113 0.71-0.296l0-0c0.183-0.181 0.296-0.432 0.296-0.71s-0.113-0.529-0.296-0.71l-0-0zM5 11c0-3.314 2.686-6 6-6s6 2.686 6 6c0 3.314-2.686 6-6 6v0c-3.314 0-6-2.686-6-6v0z"></path>
</symbol>
<symbol id="icon-user" viewBox="0 0 24 24">
<title>user</title>
<path d="M16 14h-8c-2.8 0-5 2.2-5 5v2c0 0.6 0.4 1 1 1s1-0.4 1-1v-2c0-1.7 1.3-3 3-3h8c1.7 0 3 1.3 3 3v2c0 0.6 0.4 1 1 1s1-0.4 1-1v-2c0-2.8-2.2-5-5-5z"></path>
<path d="M12 12c2.8 0 5-2.2 5-5s-2.2-5-5-5-5 2.2-5 5 2.2 5 5 5zM12 4c1.7 0 3 1.3 3 3s-1.3 3-3 3-3-1.3-3-3 1.3-3 3-3z"></path>
</symbol>
<symbol id="icon-plus" viewBox="0 0 32 32">
<title>plus</title>
<path d="M31 12h-11v-11c0-0.552-0.448-1-1-1h-6c-0.552 0-1 0.448-1 1v11h-11c-0.552 0-1 0.448-1 1v6c0 0.552 0.448 1 1 1h11v11c0 0.552 0.448 1 1 1h6c0.552 0 1-0.448 1-1v-11h11c0.552 0 1-0.448 1-1v-6c0-0.552-0.448-1-1-1z"></path>
</symbol>
<symbol id="icon-minus" viewBox="0 0 32 32">
<title>minus</title>
<path d="M0 13v6c0 0.552 0.448 1 1 1h30c0.552 0 1-0.448 1-1v-6c0-0.552-0.448-1-1-1h-30c-0.552 0-1 0.448-1 1z"></path>
</symbol>
<symbol id="icon-facebook" viewBox="0 0 32 32">
<title>facebook</title>
<path d="M19 6h5v-6h-5c-3.86 0-7 3.14-7 7v3h-4v6h4v16h6v-16h5l1-6h-6v-3c0-0.542 0.458-1 1-1z"></path>
</symbol>
<symbol id="icon-twitter" viewBox="0 0 32 32">
<title>twitter</title>
<path d="M32 7.075c-1.175 0.525-2.444 0.875-3.769 1.031 1.356-0.813 2.394-2.1 2.887-3.631-1.269 0.75-2.675 1.3-4.169 1.594-1.2-1.275-2.906-2.069-4.794-2.069-3.625 0-6.563 2.938-6.563 6.563 0 0.512 0.056 1.012 0.169 1.494-5.456-0.275-10.294-2.888-13.531-6.862-0.563 0.969-0.887 2.1-0.887 3.3 0 2.275 1.156 4.287 2.919 5.463-1.075-0.031-2.087-0.331-2.975-0.819 0 0.025 0 0.056 0 0.081 0 3.181 2.263 5.838 5.269 6.437-0.55 0.15-1.131 0.231-1.731 0.231-0.425 0-0.831-0.044-1.237-0.119 0.838 2.606 3.263 4.506 6.131 4.563-2.25 1.762-5.075 2.813-8.156 2.813-0.531 0-1.050-0.031-1.569-0.094 2.913 1.869 6.362 2.95 10.069 2.95 12.075 0 18.681-10.006 18.681-18.681 0-0.287-0.006-0.569-0.019-0.85 1.281-0.919 2.394-2.075 3.275-3.394z"></path>
</symbol>
<symbol id="icon-tumblr" viewBox="0 0 32 32">
<title>tumblr</title>
<path d="M18.001 14l-0 7.318c0 1.857-0.024 2.927 0.173 3.453 0.195 0.524 0.685 1.067 1.218 1.381 0.709 0.425 1.517 0.637 2.428 0.637 1.62 0 2.577-0.214 4.179-1.267v4.811c-1.366 0.642-2.558 1.019-3.666 1.279-1.109 0.258-2.308 0.388-3.596 0.388-1.463 0-2.327-0.184-3.45-0.552-1.124-0.371-2.083-0.9-2.876-1.579-0.795-0.685-1.344-1.413-1.652-2.182s-0.46-1.888-0.46-3.351v-11.222h-4.295v-4.531c1.256-0.408 2.661-0.993 3.556-1.755 0.899-0.764 1.618-1.678 2.16-2.748 0.543-1.067 0.917-2.429 1.121-4.079h5.159l-0 8h7.999v6h-7.999z"></path>
</symbol>
</defs>
</svg>
