<!-- Generated by IcoMoon.io -->
<svg version="1.1" xmlns="http://www.w3.org/2000/svg" width="24" height="24" viewBox="0 0 24 24">
<title>arrow-ios-forward-outline</title>
<path fill="#fff" d="M10 19c-0.001 0-0.001 0-0.002 0-0.243 0-0.466-0.087-0.64-0.231l0.002 0.001c-0.222-0.185-0.362-0.461-0.362-0.77 0-0.244 0.088-0.468 0.233-0.642l-0.001 0.002 4.48-5.36-4.32-5.37c-0.139-0.17-0.224-0.391-0.224-0.63 0-0.314 0.145-0.595 0.372-0.778l0.002-0.001c0.175-0.155 0.407-0.249 0.661-0.249 0.326 0 0.615 0.156 0.798 0.397l0.002 0.003 4.83 6c0.142 0.171 0.227 0.393 0.227 0.635s-0.086 0.464-0.229 0.637l0.001-0.002-5 6c-0.185 0.222-0.461 0.362-0.77 0.362-0.021 0-0.042-0.001-0.063-0.002l0.003 0z"></path>
</svg>
