<svg xmlns="http://www.w3.org/2000/svg" width="200" height="200" viewBox="0.25 0.25 80 80" enable-background="new 0.25 0.25 80 80"><path fill="#404041" d="M40.25 76.25c-19.851 0-36-16.149-36-36s16.149-36 36-36 36 16.149 36 36-16.149 36-36 36zm0-70c-18.748 0-34 15.252-34 34s15.252 34 34 34 34-15.253 34-34-15.252-34-34-34z"/><rect x="26.881" y="29.336" fill="#404041" width="2.015" height="21.83"/><path fill="#404041" d="M33.91 42.89h1.67v4.96c-.079 1.006-.608 1.563-1.565 1.563-.794 0-1.405-.582-1.405-1.723v-14.852c0-1.113.397-1.698 1.433-1.698 1.087 0 1.511.585 1.511 1.698v3.846h1.804v-3.846c0-2.388-.981-3.741-3.315-3.741-2.282 0-3.449 1.353-3.449 3.741v14.852c0 2.757 1.406 3.713 3.289 3.713 1.193 0 2.229-.452 2.652-1.3l.663 1.194h.319v-10.318l-3.607.001v1.91z"/><path fill="#404041" d="M44.468 39.866c.848-.239 1.325-1.061 1.325-2.414v-4.374c0-2.601-.927-3.741-3.234-3.741h-3.475v21.83h3.475c2.307 0 3.499-1.114 3.499-3.687v-5.2c0-1.566-.742-2.228-1.59-2.414zm-3.369-8.488h1.46c.98 0 1.351.425 1.351 1.67v4.589c0 1.036-.371 1.459-1.326 1.459h-1.484l-.001-7.718zm2.892 16.101c0 1.139-.479 1.697-1.432 1.697h-1.46v-8.302h1.484c1.114 0 1.407.504 1.407 1.75l.001 4.855z"/><rect x="47.507" y="29.336" fill="#404041" width="2.016" height="21.83"/><polygon fill="#404041" points="50.897,31.378 53.337,31.378 53.337,51.166 55.327,51.166 55.327,31.378 57.767,31.378 57.767,29.336 50.897,29.336"/><polygon fill="#404041" points="61.156,49.175 61.156,41.059 63.808,41.059 63.808,39.043 61.156,39.043 61.156,31.378 64.922,31.378 64.922,29.336 59.141,29.336 59.141,51.166 65.055,51.166 65.055,49.175"/><path fill="#404041" d="M23.857 39.866c.849-.238 1.326-1.061 1.326-2.414v-4.374c0-2.6-.928-3.741-3.235-3.741h-3.474v9.829c-.488-.268-.891-.666-1.143-1.266-.208-.49-2.037.117-1.875.502.547 1.301 1.727 1.789 3.018 1.989v10.774h3.474c2.307 0 3.5-1.114 3.5-3.687v-5.198c0-1.566-.741-2.228-1.591-2.414zm-3.368-8.488h1.46c.981 0 1.352.425 1.352 1.672v4.587c0 1.036-.371 1.459-1.326 1.459h-1.485l-.001-7.718zm2.891 16.101c0 1.139-.476 1.697-1.431 1.697h-1.46v-8.302h1.485c1.115 0 1.406.504 1.406 1.75v4.855z"/></svg>
